# xmcd
#
# Track frame offsets: 
#        150
#        22100
#        43730
#        64855
#
# Disc length: 1110 seconds
#
# Revision: 3
# Processed by: cddbd v1.5.1PL0 Copyright (c) Steve Scherf et al.
# Submitted via: ExactAudioCopy v0.90b4
#
DISCID=33045404
DTITLE=Fugees - Killing Me Softly (Single)
DYEAR=1994
DGENRE=R&B
TTITLE0=Killing Me Softly
TTITLE1=Cowboys
TTITLE2=Nappy Heads (Remix Radio Edit)
TTITLE3=Vocab (Refugees Hip Hop Remix)
EXTD=
EXTT0=
EXTT1=
EXTT2=
EXTT3=
PLAYORDER=
